<svg width="250" height="250" viewBox="0 0 250 250" fill="none" xmlns="http://www.w3.org/2000/svg">
<path d="M237.843 12.1569C254.052 28.3661 254.052 54.6463 237.843 70.8555L84.5512 224.147C77.902 230.797 69.5707 235.514 60.448 237.794L12.9027 249.681C5.30309 251.581 -1.58063 244.697 0.319262 237.097L12.2056 189.552C14.4863 180.429 19.2034 172.098 25.8526 165.449L179.145 12.1569C195.354 -4.05229 221.634 -4.05229 237.843 12.1569ZM164.468 56.1786L40.5273 180.123C36.5377 184.113 33.7075 189.112 32.3391 194.585L24.6472 225.353L55.4146 217.661C60.8882 216.293 65.887 213.462 69.8766 209.473L193.813 85.5235L164.468 56.1786ZM193.819 26.8315L179.141 41.5062L208.486 70.8511L223.168 56.1808C231.273 48.0762 231.273 34.9361 223.168 26.8315C215.064 18.7269 201.924 18.7269 193.819 26.8315Z" fill="white"/>
</svg>
