<svg width="250" height="250" viewBox="0 0 250 250" fill="none" xmlns="http://www.w3.org/2000/svg">
<path fill-rule="evenodd" clip-rule="evenodd" d="M3.66117 246.339C8.54272 251.22 16.4573 251.22 21.3388 246.339L88.6794 178.998C105.613 192.161 126.891 200 150 200C205.228 200 250 155.228 250 100C250 44.7715 205.228 0 150 0C94.7715 0 50 44.7715 50 100C50 123.109 57.8385 144.387 71.0018 161.321L3.66117 228.661C-1.22039 233.543 -1.22039 241.457 3.66117 246.339ZM150 175C191.421 175 225 141.421 225 100C225 58.5787 191.421 25 150 25C108.579 25 75 58.5787 75 100C75 141.421 108.579 175 150 175Z" fill="black"/>
</svg>
